# xmcd
#
# Track frame offsets: 
#        150
#        22648
#        44963
#        68086
#        93320
#        115961
#        138583
#        164923
#        195556
#        214047
#        233861
#        253669
#        276592
#        295153
#        321731
#
# Disc length: 4662 seconds
#
# Revision: 0
# Processed by: cddbd v1.5.2PL0 Copyright (c) Steve Scherf et al.
# Submitted via: ExactAudioCopyFreeDBPlugin 1.0
#
DISCID=f112340f
DTITLE=The Isley Brothers - Smooth Sailin'
DYEAR=2016
DGENRE=Rhythm and Blues
TTITLE0=Everything is Alright
TTITLE1=Dish it Out
TTITLE2=It Takes a Good Woman
TTITLE3=Send a Message
TTITLE4=Smooth Sailin’ Tonight
TTITLE5=Somebody I Used to Know
TTITLE6=Come My Way
TTITLE7=I Wish
TTITLE8=Smooth Sailin’ Tonight (single version)
TTITLE9=It Takes a Good Woman (single version)
TTITLE10=Come My Way (single version)
TTITLE11=I Wish (single version)
TTITLE12=Smooth Sailin’ Tonight (instrumental)
TTITLE13=Come My Way (instrumental)
TTITLE14=It Takes a Good Woman (dub version)
EXTD=
EXTT0=
EXTT1=
EXTT2=
EXTT3=
EXTT4=
EXTT5=
EXTT6=
EXTT7=
EXTT8=
EXTT9=
EXTT10=
EXTT11=
EXTT12=
EXTT13=
EXTT14=
PLAYORDER=
